Motion_pl05
version=1
nRows=12
nColumns=43
inDegrees=yes
endheader
time	pelvis_tilt	pelvis_list	pelvis_rotation	pelvis_tx	pelvis_ty	pelvis_tz	hip_flexion_r	hip_adduction_r	hip_rotation_r	knee_angle_r	ankle_angle_r	subtalar_angle_r	mtp_angle_r	hip_flexion_l	hip_adduction_l	hip_rotation_l	knee_angle_l	ankle_angle_l	subtalar_angle_l	mtp_angle_l	lumbar_extension	lumbar_bending	lumbar_rotation	neck_flexion	neck_lateral_bending	neck_rotation	arm_flex_r	arm_add_r	arm_rot_r	elbow_flex_r	pro_sup_r	wrist_flex_r	wrist_dev_r	hand_finger_flex_r	arm_flex_l	arm_add_l	arm_rot_l	elbow_flex_l	pro_sup_l	wrist_flex_l	wrist_dev_l	hand_finger_flex_l
      1.52000000	      6.06394046	    -10.25436309	     90.95320695	      0.01000038	      0.62857657	      0.34971939	     70.46860917	    -12.67300725	    -12.04191502	   -103.71899005	     37.53087205	     20.17447033	     -0.39711146	     76.27324361	    -16.18842178	      6.17187064	   -106.06265620	     38.05708070	     11.90731623	     -3.53048559	    -38.39506542	      4.94500347	      2.84271949	      7.39885941	      2.04706927	      6.46349348	     45.97717479	    -60.91023347	     33.72749372	     92.28830126	    108.02858637	    -12.33665848	     -2.46511052	     42.15304787	     34.33866321	    -55.70129175	     24.16753572	    108.58938650	    132.49245481	    -22.74126055	     11.92014209	     90.00021046
      1.52250000	      6.08165817	    -10.33650588	     90.94022851	      0.01011692	      0.63151396	      0.34871260	     70.10593091	    -12.52178038	    -12.09818058	   -103.18052367	     37.59576236	     20.13043022	     -0.51298626	     75.90219544	    -16.27262451	      6.04309057	   -105.54703513	     38.09993485	     11.84929473	     -3.61627731	    -38.09397251	      4.93344747	      2.81873988	      7.24341312	      2.03586392	      6.38713646	     43.88525240	    -61.02087783	     32.20079729	     92.38193818	    107.93115452	    -12.45512838	     -2.54356335	     41.96234284	     32.39167516	    -55.74151780	     22.77453853	    108.71963442	    132.45071264	    -22.91126608	     11.96385962	     89.99533427
      1.52500000	      6.04243947	    -10.50573080	     90.89756170	      0.01009474	      0.63433586	      0.34773514	     69.86202460	    -12.42879660	    -12.12949001	   -102.63850214	     37.58956105	     20.04324235	     -0.66712264	     75.59747043	    -16.33526358	      5.83128355	   -105.02713712	     38.07975110	     11.87457136	     -3.74561626	    -37.72177860	      4.86348265	      2.80965502	      7.25485551	      2.17262243	      6.39425851	     41.67717947	    -61.14609693	     30.48422790	     92.50713669	    108.08327088	    -12.31392497	     -2.64510820	     41.86590417	     30.33906869	    -55.61901147	     21.20798743	    108.85191382	    132.63118359	    -22.99678650	     11.87043061	     89.95029661
      1.52750000	      6.04160658	    -10.60378238	     90.86511022	      0.01033102	      0.63717585	      0.34666979	     69.52753879	    -12.29614264	    -12.21766723	   -102.11865110	     37.62977562	     19.98864389	     -0.77679585	     75.23242909	    -16.45552165	      5.65535472	   -104.51988886	     38.13375509	     11.83513197	     -3.84605396	    -37.38925383	      4.81902639	      2.76223184	      7.11257224	      2.18287227	      6.36308355	     39.59061226	    -61.15349763	     28.95899735	     92.57846892	    108.03944632	    -12.35997418	     -2.71529918	     41.77739493	     28.34297842	    -55.62855930	     19.75662753	    108.95824370	    132.69256013	    -23.12942885	     11.85362567	     89.92491235
      1.53000000	      6.03025214	    -10.55051909	     90.83289980	      0.01002844	      0.64031069	      0.34555318	     69.03077038	    -12.24186787	    -12.29170362	   -101.59500613	     37.55409581	     19.92270595	     -0.82489304	     74.69068461	    -16.51727135	      5.43715453	   -104.03156306	     38.09760767	     11.79957997	     -3.89054843	    -37.09653123	      4.82366356	      2.81454268	      6.35577533	      2.26485719	      6.29430401	     38.03405422	    -61.37999077	     28.22413889	     92.41983810	    107.87590595	    -12.51026075	     -2.66866429	     41.75499251	     26.73092870	    -55.32001230	     18.74978911	    108.74455234	    132.60518502	    -23.30638526	     12.01447724	     89.93161051
      1.53250000	      6.01848202	    -10.83958801	     90.76426109	      0.01041835	      0.64290701	      0.34461379	     68.91028484	    -12.07673403	    -12.35546197	   -101.03301625	     37.63073879	     19.86481688	     -0.93715977	     74.51523481	    -16.65851157	      5.26479794	   -103.47706879	     38.18268448	     11.84841947	     -4.01934758	    -36.73776704	      4.72837187	      2.69295768	      7.08109384	      2.32166958	      6.42470837	     35.55363425	    -61.15238596	     25.99813461	     92.65026596	    107.86921402	    -12.54583177	     -2.84245430	     41.78408842	     24.20390967	    -55.43930507	     16.65812486	    109.22097669	    132.86208578	    -23.47263228	     11.79444165	     89.90157140
      1.53500000	      5.95522332	    -10.96259002	     90.70783237	      0.01049969	      0.64574134	      0.34359153	     68.64444329	    -11.94844873	    -12.29527798	   -100.51336229	     37.60465870	     19.80199774	     -1.08890723	     74.13858976	    -16.71004840	      5.04568988	   -102.94156212	     38.20435094	     11.84408773	     -4.20459086	    -36.40680840	      4.62177775	      2.65631535	      7.00920703	      2.46487176	      6.43219938	     33.33965277	    -61.11669072	     24.22544243	     92.76607542	    108.14858380	    -12.23049278	     -2.91886782	     41.78355638	     22.15409369	    -55.23268593	     15.01411037	    109.34741735	    133.11901719	    -23.35949732	     11.54967937	     89.80422229
      1.53750000	      5.95881288	    -10.89857468	     90.66423459	      0.01030922	      0.64887909	      0.34241917	     68.12579749	    -11.88467005	    -12.40877731	    -99.98431301	     37.51931081	     19.77070468	     -1.13912737	     73.57174431	    -16.78751310	      4.83621593	   -102.43384801	     38.21665675	     11.77160003	     -4.25759748	    -36.10206680	      4.63970173	      2.67929119	      6.18509950	      2.45592992	      6.35604458	     31.81712045	    -61.12126636	     23.44020569	     92.49848156	    107.97467364	    -12.37563772	     -2.83286094	     41.74061964	     20.58710900	    -54.94205901	     14.07166346	    109.08649958	    133.03720429	    -23.47009192	     11.69692344	     89.81011946
      1.54000000	      5.94030581	    -11.11838721	     90.60706386	      0.01068527	      0.65156420	      0.34144396	     67.93168650	    -11.74627424	    -12.47245790	    -99.42595932	     37.60173897	     19.74197355	     -1.24487164	     73.31702682	    -16.94036025	      4.61198395	   -101.87536702	     38.32089579	     11.80354918	     -4.41164071	    -35.80619727	      4.53181397	      2.58564963	      6.82284100	      2.54377186	      6.47675193	     29.42978720	    -60.87385351	     21.36666849	     92.69530279	    107.89440151	    -12.38598790	     -2.95294547	     41.71783430	     18.22037818	    -54.92726973	     12.11101822	    109.51183740	    133.22333367	    -23.58798526	     11.48385459	     89.75331417
      1.54250000	      5.86246792	    -11.20541523	     90.53634560	      0.01073002	      0.65444207	      0.34040752	     67.63179696	    -11.64222176	    -12.40853353	    -98.90769258	     37.55826357	     19.70549362	     -1.39507459	     72.89006964	    -16.96442254	      4.38928597	   -101.33382502	     38.34468471	     11.79644207	     -4.63181283	    -35.52719782	      4.41512031	      2.57971547	      6.80897597	      2.70657821	      6.47481707	     27.23176551	    -60.78159883	     19.59894422	     92.81856258	    108.10935504	    -12.06596033	     -3.00121347	     41.65581053	     16.28007424	    -54.63095318	     10.53626320	    109.59726624	    133.46034215	    -23.46241794	     11.21482335	     89.62546183
      1.54500000	      5.81356109	    -11.26376022	     90.48332738	      0.01070151	      0.65735556	      0.33932983	     67.28285094	    -11.56735254	    -12.41881192	    -98.37711255	     37.50680261	     19.69478145	     -1.55135321	     72.43804555	    -17.04401704	      4.13533785	   -100.79215655	     38.37329216	     11.77903887	     -4.86896529	    -35.25047213	      4.33347041	      2.57801890	      6.73281544	      2.80925069	      6.45277935	     25.11387722	    -60.65845971	     17.90309583	     92.83070685	    108.20414930	    -11.82510517	     -3.01439923	     41.47500205	     14.50059406	    -54.32385232	      9.18432250	    109.63249032	    133.57438861	    -23.35789061	     11.02782444	     89.47674900
      1.54750000	      5.82224120	    -11.19450319	     90.45831456	      0.01064995	      0.66045531	      0.33814884	     66.76164818	    -11.50334207	    -12.55292652	    -97.84914950	     37.41905814	     19.68828849	     -1.59666369	     71.87975771	    -17.11396754	      3.94405736	   -100.27549939	     38.39496177	     11.69387729	     -4.92428123	    -34.94557822	      4.34521220	      2.57332972	      5.88288316	      2.79397295	      6.39213696	     23.64399134	    -60.51971054	     17.13446210	     92.50836467	    108.01952578	    -11.96718337	     -2.91107822	     41.41960384	     13.02833643	    -54.00007954	      8.29418237	    109.34909879	    133.49745141	    -23.46310589	     11.17262686	     89.49204356
